<?xml version="1.0" encoding="UTF-8"?>
<svg id="Capa_1" xmlns="http://www.w3.org/2000/svg" version="1.1" viewBox="0 0 1100 90">
  <!-- Generator: Adobe Illustrator 30.3.0, SVG Export Plug-In . SVG Version: 2.1.3 Build 182)  -->
  <defs>
    <style>
      .st0 {
        fill: #f5f2ec;
        font-family: Impact, Impact;
        font-size: 30px;
      }

      .st0, .st1 {
        isolation: isolate;
      }

      .st2 {
        fill: #fdfdfe;
      }

      .st3 {
        fill: #050505;
      }

      .st1 {
        fill: #ef3f5f;
        font-family: SerifGothicStd-Black, 'ITC Serif Gothic Std';
        font-size: 14.28px;
        font-weight: 800;
      }
    </style>
  </defs>
  <rect class="st3" y="0" width="1100" height="90"/>
  <text class="st1" transform="translate(57.95 52.8)"><tspan x="0" y="0">SELECTED CLIENTS:</tspan></text>
  <text class="st0" transform="translate(259.11 241.42)"><tspan x="0" y="0">DUNGEONS &amp; DRAGONS</tspan></text>
  <text class="st0" transform="translate(538.1 284.84)"><tspan x="0" y="0">BANDAI</tspan></text>
  <text class="st0" transform="translate(663.42 290.15)"><tspan x="0" y="0">KONAMI</tspan></text>
  <text class="st0" transform="translate(792.6 320.28)"><tspan x="0" y="0">NETFLIX</tspan></text>
  <text class="st0" transform="translate(893.67 300.79)"><tspan x="0" y="0">UNIVERSAL</tspan></text>
  <text class="st0" transform="translate(1034.81 286.61)"><tspan x="0" y="0">MATTEL</tspan></text>
  <g id="mPhw6A.tif">
    <g>
      <path class="st2" d="M303.23,62.64c-.18-1.99-1.27-3.82-2.61-5.26-1.18-1.26-2.58-2.25-4.1-3.07-2.77-1.48-6.25-2.39-9.37-2.63l-.56-.04-.7-.05-1.09-.03c-.35,0-.66,0-1,0l-1.17.03-.66.04-.65.05c-2.73.21-5.39.77-8.01,1.59-4.81,1.51-9.41,4-13.44,7.01-1.5,1.13-2.94,2.29-4.29,3.58l-.81.77-1.52,1.52-.73.77-2.88,3.37s-.07.06-.08.04c-.01-.02-.05-.07-.06-.1-.69-2.06-1.47-4.05-2.44-5.98l-.52-1.03c-1.94-3.74-4.31-7.22-7.16-10.32l-.51-.55-2.24-2.24c-4.42-4.14-10.13-7.85-16.04-9.47l.72-.84.81-.85.91-.91,1.04-1,.52-.48.46-.42c4.56-4.14,9.7-7.6,15.19-10.42l1.11-.56,1.07-.51c6.96-3.33,15.4-5.59,23.08-6.14l.7-.05.69-.04.68-.03,1.22-.04h3.3s1.14.04,1.14.04l.67.04.61.04.61.05c7.85.61,16.06,3.18,22.74,7.4,2.15,1.36,4.18,2.86,6.01,4.61l.99.94.93.98.27.3,1.26,1.48c.81.95,1.48,1.98,2.14,3.04,1.8,2.92,3.04,6.13,3.57,9.52l.03.21v.05s-1.25.55-1.25.55l-.14.07s0,.13.01.17l.04.56.04.75-.02.56-.03.4s-.04.11-.05.12-.07-.04-.08-.06l-.02-.11-.06-.74-.21-1.22-.05-.16s-.1.02-.14.05l-1.14.78-.05.04-.59.47-.39.35s0,.1.02.15c.36.93.55,1.9.62,2.9v1.54c-.12,1.81-.76,3.57-2.25,4.67l-.08.06s-.1.02-.09,0c.08-.16.59-.62,1.01-1.41.56-1.05.86-2.39.79-3.58l-.03-.51c-.22-1.73-.86-3.75-1.98-5.13-.02,0-.06.03-.05.05l.06.09c.37.77.69,1.55.87,2.39-.69.77-1.23,1.57-1.73,2.46-1.15,2.06-1.85,4.31-2.18,6.56l-.07-.13-.03-.06-.03-.06-.03-.06c-.26-.5-.55-.96-.89-1.42l-.04-.05-.04-.05-.04-.05-.04-.05-.04-.05-.11-.11s-.06-.06-.06-.05c0,.01-.01.05,0,.06l.06.08c.84,1.35,1.37,2.83,1.5,4.42l.03.4c.17,2.05-.88,4.34-2.26,5.86-.52.62-1.1,1.11-1.75,1.61-.03.01-.14-.02-.13-.05.02-.04.07-.1.12-.14,1.84-1.51,2.96-3.46,3.14-5.86v-1.5ZM253.24,46.62l.52-1.1.19-.42.06-.04.06.08,3.54,4.14s.13.07.16.05l1.6-.81-1.74-11.15.66-1.41c.36.02.75.18.89.56l3.28,9.01c.16.43-.08.84-.39,1.08s-.63.3-.6.37l.03.08.16.41c1.75-.77,3.51-1.45,5.35-2,.06-.02.12-.1.11-.15l-.13-.42c-.79.2-1.51.19-1.78-.61l-3.4-9.89c-.05-.07-.04-.11.02-.06l.26.16.25.15,3,1.78c.09.06.13.11.14.22l.04.54.48-.09c.06-.01.12-.11.14-.19l3.02,1.79-1.37,6.53,1.22-.32c1.93-.51,3.86-.84,5.88-1.15l-.02-2.73-.03-1.07s0-.09-.01-.08l-.09.02-.48.09-.33,1.55c-.08.35-.26.7-.51.97-.19.2-.46.28-.7.4l-1.57.4c-.05-.02-.1-.05-.09-.07l.04-.09,2.48-11.59-1.77.22c-2.25.3-4.45.7-6.66,1.26-.01,0-.06.07-.06.08l.03.33.19,1.76v.12s-.07-.03-.08-.04l-.83-.65-2.54-1.98-.09-.07s.02-.05.04-.05l.09-.02,13.04-2.95-12.3,1.25c1.15-.74,2.29-1.3,3.46-1.88,3.77-1.87,8.12-3.2,12.32-3.51l.65-.05.74-.04h3s.74.04.74.04l.73.05c2.8.2,5.57.78,8.23,1.72,3.63,1.29,6.95,3.28,9.77,5.89l1.67,1.67.42.46c1.68,1.85,3.07,3.93,4.22,6.16.52,1,.96,1.99,1.35,3.04.02.02.07.06.08.04l.04-.1c-.37-1.12-.79-2.21-1.3-3.28-1.13-2.41-2.55-4.62-4.33-6.58l-.48-.53-1.37-1.37c-3.28-3.06-7.22-5.36-11.46-6.86-2.65-.94-5.39-1.6-8.18-1.83l-.62-.05-.56-.03-.53-.03h-2.19s-.9.04-.9.04l-.61.04-.65.05c-5.42.42-10.57,2.39-15.27,5.09l.43-1.28,1.22-3.61,1.14-3.39.17-.47c-.02-.08-.06-.02-.07.04l-.48.93-.84,1.64-.88,1.72-.86,1.67-.89,1.72-.86,1.7-1.49-3.48,1.04-.32-.21-.83-1.18.33-1.77-4.09.94,4.32-5.01,1.53-3.21-1.58,2.5,1.83-.92.33.27.8c.52-.22,1.58-.46,1.88-.24l1.55,1.12c.18.27.26.63.36.95l.46,2.45-4.4,2.01-4.5-5.16-1.86.94c-.13.06-.24.15-.35.25l.68,2.22,1.23,3.95-1.5.7,1.58-.46,2.7,8.52-.62-.61-1.04-1.09-1.04-1.09-1.04-1.09-1.13-1.17-1.09-1.13-1.09-1.13-1.09-1.13c-.32-.34-.59-.71-.79-1.12-.51-1.07.13-1.93,1.07-2.52l-.49-.7-1.59,1.07c-2.3,1.6-4.56,3.23-6.73,5l-.27.22.55.66c.29-.23.61-.47.95-.63,1.2-.57,2.27.13,3.19.96l9.14,8.33.55.51.48.44.52.48.48.44.52.48.48.44.52.48.48.44.52.48.5.46.42.39,1.84-1.23-4.05-13.47,5.15,5.99-.66,1.9.03.03.06-.12ZM283.69,43.62l.42.04.64.03.03-.51-.36-.07c-.2-.04-.39-.14-.5-.33-.19-.32-.32-.69-.32-1.07v-1.41s.03-.48.03-.48l.04-.52.04-.52.04-.52.04-.52.04-.52.04-.52.04-.52.04-.52.04-.52.04-.65c.11-1.83-1.31-2.82-3.03-3.02l-.77-.03c-1.78-.07-3.5,1.11-3.63,2.99-.03.39.07.79.26,1.13.36.66,1.15.84,1.76.41.32-.23.59-.58.65-.99.09-.66-.46-1.64.38-2.37.42-.36,1.06-.4,1.48,0,.28.26.34.69.32,1.06l-.03.49c-.06,1.12-.86,1.73-1.83,2.19l-1.04.49c-.8.38-1.59.8-2.18,1.46-1.08,1.21-1.21,2.96-.26,4.26.15.21.32.37.53.52.92.68,2.1.77,3.16.35.59-.23,1.09-.59,1.57-1.01l.5,1.09.57.04.65.05.54.05ZM296.29,45.88l-.2.89,1.28.59.74.35.51.27.16-.42c-.44-.27-.65-.78-.48-1.3l3.73-11.47-.33-.29-.47-.44-.41-.37-.44-.39-1.27-1.07-.15.53.28.3c.31.34.46.8.32,1.29l-1.12,3.82c-.44-.9-1.25-1.51-2.21-1.46-.77.04-1.44.33-1.99.84l-.39.39-.28.34c-1.34,1.93-1.88,4.73-.64,6.79.72,1.2,2.21,1.58,3.38.82ZM288.75,42.63l.65-4.11c.14-.87,1.01-2.85,1.99-2.54.23.12.25.46.09.66l-.36.47c-.28.37-.3.8-.04,1.15s.72.43,1.14.26c.99-.42,1.53-1.41,1.45-2.48-.06-.78-.6-1.4-1.39-1.54-.87-.16-1.7.31-2.25,1l-.26.29.29-2-3.58-1.09-.11.52.45.19c.34.15.52.46.49.83l-.05.61-.32,2.83-.45,3.72-.2,1.2c-.14.45-.63.66-1.08.6l-.09.56.5.07c1.37.2,2.71.43,4.05.78l.11-.54c-.29-.13-.56-.21-.78-.41-.28-.25-.34-.65-.28-1.05ZM303.68,48.29c.39-.82,0-2.09-.32-2.96l-.45-1.21c-.08-.2-.07-.49-.01-.69.11-.36.42-.57.74-.54.36.03.65.26.68.64.04.58-.72.83-.61,1.49.04.23.25.43.42.48.66.18,1.08-.53,1.15-1.23.1-1.18-1.07-2.28-2.27-2.37-1.03-.07-1.86.64-1.91,1.68-.02.5.13.99.32,1.46l.63,1.54c.21.51.26,1.06.17,1.59-.07.46-.45.79-.9.72-.3-.05-.51-.25-.59-.49-.21-.61.46-.9.59-1.35.09-.29-.06-.6-.26-.76-.23-.19-.54-.25-.83-.11-.56.27-.85.91-.79,1.55.09.93.77,1.64,1.66,1.91.78.24,1.58,0,2.12-.62.19-.22.34-.47.47-.74ZM282.26,47.97c-.07-.68.08-1.46.55-1.96.28-.3.62-.53,1.07-.55.66-.04,1.22.39,1.57.95.07-.3.07-.58.05-.87-.62-.41-1.29-.65-2.05-.58-1.19.11-2.13,1.1-2.21,2.29-.06.83.25,1.58.84,2.12.8.72,2.04.79,2.98.28l.28-.99c-.34.35-.71.7-1.23.76-1.02.13-1.73-.49-1.84-1.46ZM276,47.68l.97-.13c.21-.03.42-.03.59.12l.04-.8s-.19.14-.27.15l-1.4.21-.23-1.5,1.04-.13.58-.02c.31-.01.57.09.83.28l-.24-.88-.67.02-.41.03-1.45.15-1.21.2c.2.1.35.22.39.45l.75,4.02c.04.2-.06.39-.15.58l3.4-.62.21-.92c-.18.18-.3.34-.52.38l-1.52.31c-.15.03-.31.02-.44-.03l-.28-1.88ZM270.98,51.67c-.21-.1-.31-.17-.41-.33l-.69-2.22,1.93-.61.57,2.11c.05.2,0,.41-.09.62l1.48-.44c-.18-.1-.34-.22-.38-.41l-.96-4.12c-.05-.2.03-.39.1-.6l-1.64.36c.19.12.33.24.38.44l.43,1.6-1.96.58-.41-1.3c-.1-.31-.12-.58,0-.9l-1.64.52c.21.11.35.22.42.42l1.39,4.16c.08.25.04.46-.1.69l1.57-.6ZM288.75,50.37c.57-.05,1.04-.3,1.39-.73.45-.55.69-1.26.6-1.97-.13-1.03-.9-1.81-1.92-1.95-1.3-.18-2.42.73-2.59,2.02-.19,1.39.8,2.54,2.16,2.63h.36ZM293,51.24l-.18.08,1.28.49c-.19-.3-.16-.56-.14-.9l.03-.56.04-.74.04-.83.04-.83.03-.47-1.18-.43c.05.19.05.29-.04.42l-1.94,2.79c-.13.18-.26.28-.48.38l.94.26c-.07-.17-.05-.33.05-.47l.62-.9,1.03.37-.04.65c-.01.23-.01.48-.12.67ZM265.75,53.98l1.51-.76c-.28-.07-.41-.22-.5-.46l-1.67-4.11,1.07-.41c.28-.11.5-.05.82.03l-.53-.84c-1.45.53-2.79,1.13-4.16,1.84l.2.98c.18-.35.4-.57.73-.73l.8-.38,1.7,4c.12.28.15.55.02.84ZM296,52.66c.66.05,1.2-.4,1.24-1.06.02-.35-.13-.7-.29-1l-.44-.83c-.06-.12.03-.33.12-.41s.25-.12.37-.09c.46.11.71.47.69.96.15-.18.26-.36.35-.58-.25-.44-.64-.78-1.14-.83s-.97.16-1.11.64c-.09.3,0,.62.14.9l.52,1.08c.12.25,0,.53-.17.68-.4.34-.95-.18-.99-.33l-.16-.58-.28.66c.23.43.62.75,1.15.78ZM298.71,54.42l.03-.4,1.4-2.59.54.4.11.32.19-.62-1.88-1.32-.49.56c.23-.06.37-.08.56,0l.38.26-1.4,2.59c-.05.09-.2.14-.31.16l.86.65ZM260.41,53.77l-.28-.83c-.08.12-.16.25-.26.31l-1.45.92-.8-1.31c-.06-.1-.12-.24,0-.34.58-.45,1.19-.82,1.87-1.09.23-.09.42-.06.72-.02l-.57-.81-1.05.58c-.96.53-1.87,1.11-2.75,1.77.27.02.5.09.64.32l2.51,3.96c.17.26.22.52.09.81l1.51-1.03c-.26-.04-.47-.05-.61-.27l-1.31-2.14,1.22-.77c.15-.1.37-.09.51-.06ZM257.23,59.3c.52-1.23.2-2.61-.72-3.55l-.22-.22c-.61-.55-1.4-.95-2.26-.86-1.73.18-3.13,1.72-3.06,3.45.06,1.6,1.2,3,2.83,3.26,1.42.23,2.87-.72,3.43-2.08Z"/>
      <path class="st2" d="M296.23,56.15c-2.24-1.1-5.14-1.85-7.61-2.04l-.69-.05-.65-.04h-2.44s-.7.04-.7.04l-.64.05c-1.45.11-2.85.35-4.28.68-6.95,1.6-13.13,5.29-18.34,10.07h-.07s.04-.46.04-.46v-.99c.01-.95-.73-1.72-.49-1.9,2.6-2.07,5.39-3.84,8.39-5.27,3.93-1.88,8.6-3.27,12.92-3.61l.57-.04.7-.04.98-.04h1.31s1.18.04,1.18.04c2.47.15,4.89.57,7.23,1.37,2.09.72,4.2,1.78,5.86,3.24l1.13,1.13c.64.64,1.07,1.4,1.44,2.21.81,1.76.83,3.47.36,5.32-.13.45-.29.84-.5,1.25l-.13.03s0-.07.01-.1l.13-.4c.34-1.04.57-2.06.46-3.16-.18-1.75-1.07-3.38-2.3-4.59l-.24-.24-.45-.42c-.94-.86-2.02-1.49-3.17-2.05Z"/>
      <path class="st2" d="M308.63,66.41c-1.38-.08-2.4-1.19-2.41-2.51s1.03-2.44,2.4-2.53c1.48-.1,2.71,1.03,2.73,2.49s-1.2,2.64-2.72,2.55ZM310.83,63.82c-.04-1.19-.98-2.06-2.12-2.02s-2,.97-1.99,2.13.94,2.1,2.11,2.07,2.03-.97,1.99-2.18Z"/>
      <polygon class="st2" points="256.02 38.5 255.38 40.31 251.18 35.49 255.21 34.23 256.02 38.5"/>
      <path class="st2" d="M266.13,35.94c0-.47.11-.91.31-1.33.75-1.1,2.06-1.34,3.35-1.48l.57-.06-1.12,5.3-3.11-2.43Z"/>
      <path class="st2" d="M256.42,29.27l.03-.59c.08-.74.37-1.42.87-1.97l.74,3.38-1.65-.82Z"/>
      <polygon class="st2" points="257.26 34.9 257.05 33.66 257.78 33.44 257.26 34.9"/>
      <polygon class="st2" points="256.61 41.7 256.26 41.33 255.93 40.95 256.32 40.12 256.61 41.7"/>
      <polygon class="st2" points="259.57 34.8 258.69 35.14 259.22 34.01 259.57 34.8"/>
      <polygon class="st2" points="261.45 34.11 260.85 34.34 260.64 33.63 261.45 34.11"/>
      <polygon class="st2" points="257.3 31.66 256.78 31.9 256.68 31.19 257.3 31.66"/>
      <path class="st2" d="M280.96,40.85l-.06.46c-.25.43-.65.69-1.14.79s-1.06-.13-1.33-.57-.32-.92-.26-1.41c.14-1.25.96-2.07,1.99-2.72l1.09-.69-.03.54-.04.61-.04.61-.04.61-.04.61-.04.61-.04.55Z"/>
      <path class="st2" d="M295.42,45.35c-.46.05-.86-.21-1-.66-.12-.37-.15-.77-.13-1.18.07-1.36.37-2.69.94-3.92.39-.84,1.12-1.84,1.99-1.61.26.07.5.26.63.55.24.51.2,1.04.04,1.57l-1.07,3.58c-.22.75-.56,1.57-1.39,1.66Z"/>
      <path class="st2" d="M254.5,60.57c-.94-.12-1.68-.98-2.17-1.78-.29-.47-.5-.99-.46-1.55.08-.96.84-1.75,1.81-1.76,1.25,0,2.38,1.41,2.79,2.55.24.65.15,1.32-.27,1.84s-1.01.78-1.7.69Z"/>
      <path class="st2" d="M289.46,49.19c-.2.4-.52.68-.9.73-.42.05-.82-.08-1.1-.41-.61-.72-.39-1.9.13-2.72.42-.65,1.26-.81,1.84-.34.74.59.44,1.89.02,2.74Z"/>
      <polygon class="st2" points="293.23 49.07 293.19 49.54 292.31 49.27 293.32 47.76 293.27 48.48 293.23 49.07"/>
      <path class="st2" d="M309.53,65.36l-.76-1.26h-.51s0,1.26,0,1.26h-.44s0-2.92,0-2.92h1.43c.42.08.73.36.7.79.04.45-.27.81-.75.83l.83,1.28-.48.02ZM309.07,63.7c.28,0,.42-.22.42-.45s-.18-.42-.45-.43h-.79s0,.9,0,.9l.82-.02Z"/>
    </g>
  </g>
  <g id="_x31_ExBLc.tif">
    <g>
      <polygon class="st2" points="355.01 56.22 355.01 32.42 358.59 32.42 363.44 45.85 363.45 32.42 367.2 32.42 367.2 54.77 363.09 55.22 358.77 42.84 358.77 55.75 355.15 56.24 355.01 56.22"/>
      <path class="st2" d="M443.83,56.11c.02.05.02.14,0,.14l-4.24-.57-2.73-7.03-2.76,6.38-3.94-.41,4.75-10.99-4.35-11.19h4.06s2.43,6.24,2.43,6.24l2.7-6.25h4.12s-4.87,11.28-4.87,11.28l4.82,12.42Z"/>
      <polygon class="st2" points="379.6 44.81 377.64 44.81 374.54 44.85 374.54 50.41 381.19 49.96 381.19 53.65 370.78 54.42 370.78 32.42 381.19 32.42 381.19 36.14 374.54 36.14 374.54 41.15 379.6 41.12 379.6 44.81"/>
      <polygon class="st2" points="406.38 40.94 406.38 44.63 401.31 44.63 401.31 53.14 397.55 53.14 397.56 32.42 408.01 32.42 408.01 36.14 401.31 36.14 401.31 40.94 406.38 40.94"/>
      <polygon class="st2" points="391.25 53.23 387.49 53.35 387.49 36.14 383.58 36.14 383.58 32.42 395.17 32.42 395.17 36.14 391.24 36.14 391.25 53.23"/>
      <polygon class="st2" points="420.57 50.13 420.57 53.83 410.4 53.31 410.4 32.42 414.15 32.42 414.15 49.77 420.57 50.13"/>
      <polygon class="st2" points="427.4 54.35 423.65 54.05 423.65 32.42 427.4 32.42 427.4 54.35"/>
    </g>
  </g>
  <g id="a1WJcK.tif">
    <g>
      <path class="st2" d="M665.7,36.7v.27s-.03.24-.03.24c-.18,1.07-1.18,1.82-2.23,1.74s-1.91-.94-1.97-2,.69-2.02,1.77-2.2c1.15-.19,2.26.6,2.42,1.71l.04.24ZM665.5,36.72c-.06-1.08-.91-1.85-1.96-1.83s-1.83.81-1.87,1.85c-.05,1.13.82,2.05,1.94,2.05s1.96-.91,1.9-2.07Z"/>
      <path class="st2" d="M580.11,44.39c1.23.54,2.07,1.38,2.34,2.69.14.71.21,1.44.13,2.17-.15,1.3-.78,2.45-1.69,3.38-.87.78-1.94,1.31-3.14,1.31l-11.42.02v-19.11s10.5,0,10.5,0c1.5,0,2.87.69,3.87,1.76.65.72,1.31,1.86,1.36,2.81.06,1.11-.17,2.18-.61,3.18-.32.69-.73,1.27-1.32,1.79ZM573.27,45.9v-3.03s1.74,0,1.74,0c.43,0,.83-.08,1.22-.24.94-.44,1.25-1.44.97-2.41-.16-.53-.51-.93-1.01-1.16-.33-.12-.67-.22-1.05-.22h-4.38s0,11.09,0,11.09h4.49c.39,0,.75-.08,1.1-.19.57-.21.99-.65,1.11-1.25.19-.97-.08-1.93-1.02-2.34-.38-.15-.77-.24-1.19-.24h-1.98Z"/>
      <path class="st2" d="M636.33,41.96c.4,2.41.25,5.2-.79,7.43-.76,1.64-2.05,2.94-3.7,3.69-1.12.53-2.31.77-3.56.86h-8.49s0-19.11,0-19.11h8.42c1.37.01,2.67.39,3.88.97,2.44,1.25,3.79,3.48,4.23,6.15ZM631.74,42.85c-.28-1.72-1.16-3.1-2.83-3.69-.57-.19-1.14-.31-1.75-.31h-2.92s0,11.08,0,11.08h2.8c.68,0,1.31-.11,1.94-.33.96-.36,1.72-1.02,2.2-1.93.73-1.39.81-3.28.56-4.82Z"/>
      <polygon class="st2" points="617.07 53.95 613.6 53.95 606.63 43.82 606.63 53.95 602.3 53.95 602.3 34.84 605.87 34.84 612.73 44.84 612.73 34.84 617.07 34.84 617.07 53.95"/>
      <polygon class="st2" points="591.52 41.65 588.9 49.93 592.94 49.94 592.94 53.95 583.16 53.95 589.36 34.84 593.37 34.84 600.97 53.95 596.43 53.95 591.52 41.65"/>
      <polygon class="st2" points="644.91 41.65 642.28 49.93 646.31 49.94 646.31 53.95 636.54 53.95 642.74 34.84 646.75 34.84 654.35 53.95 649.81 53.95 644.91 41.65"/>
      <rect class="st2" x="655.56" y="34.84" width="4.34" height="19.11" transform="translate(-.11 1.59) rotate(-.14)"/>
      <path class="st2" d="M664.43,38.08l-.74-1.14h-.67s0,1.14,0,1.14h-.21s0-2.5,0-2.5h1.15c.33.06.59.26.6.61.05.4-.23.7-.65.74l.74,1.14h-.22ZM663.91,36.73c.29,0,.47-.23.46-.48,0-.23-.19-.46-.46-.47h-.88s0,.97,0,.97l.88-.02Z"/>
    </g>
  </g>
  <g id="Pts4g8.tif">
    <g>
      <path class="st2" d="M486.3,66.94l.36-2.95-3.15.78.84-2.93-3.1.38,1.03-2.9-3.16-.16,1.49-2.78c.04-.06.04-.13.03-.21l.56-.15-2.28-8.55,5.32,7.73,1.55-.41.74-9.38,2.31,8.55,1.8-.48-2.97-11.04-2.63.7-.59,9.48-5.34-7.88-2.66.72.23.89-1.66-.86,2.61-1.66-2.52-1.94,2.77-1.37-2.34-2.11.42-.14,2.59-.81s.05-.02.04-.03l-.03-.04-2.05-2.34,3.09-.69-1.68-2.62,3.09-.32-1.39-2.88,3.25.08-.91-2.78-.02-.05s.04-.01.06-.01l3.12.26-.66-2.92,2.99.89-.23-3.13,2.97,1.26.22-3.01,2.68,1.67.49-3.1,2.46,1.94.94-2.9,1.71,1.75.47.49,1.23-2.73,1.95,2.39,1.51-2.51.03-.05s.02,0,.03.02l1.62,2.58,1.77-2.27s.05-.07.06-.05l.04.07,1.19,2.65s.03.04.04.04l.03-.03.54-.52,1.67-1.61.87,3.03,2.39-1.79s.07-.06.08-.04l.02.09.52,2.95,2.52-1.43.05-.03s.03.02.04.04l.1,3.08.02.04,1.27-.55,1.5-.64s.07-.03.07-.02v.09s-.24,3.03-.24,3.03v.07s.04.02.08,0l3.02-.78-.81,2.98h.06s2.86-.27,2.86-.27h.06s.01.04,0,.07l-1.03,2.74,3.22.12-.4.71-.88,1.55-.2.35s-.03.06-.02.06h.09s.06.01.06.01h.06s2.82.22,2.82.22l-1.89,2.45,2.48.73h.05s.05.03.05.03l.36.11.06.02s0,.04-.02.06l-2,2.18,2.79,1.32-2.24,1.91-3.28.89-2.4-8.91-.09-.33v-.05s-.03-.05-.03-.05c0,0-.01-.03-.02-.03h-.05s-1.83.5-1.83.5l2.96,11.04,6.59-1.77.72.48-2.09,1.22-.35.22,2.16,1.74.19.15s.07.08.05.09l-.12.06-2.47,1.16-.07.03s.02.05.04.07l2.19,2.27s-.12.06-.19.09l-.05.02-2.49.8-.15.05s.05.1.07.12l.03.04.02.03.03.04,1.46,1.93.03.03.12.15.07.1s-.09.04-.12.05h-.05s-.05.02-.05.02h-.05s-2.46.57-2.46.57h-.05s-.05.02-.05.02h-.05s-.05.02-.05.03l.03.07.02.04,1.66,2.79h-3.12s-.13,0-.13,0c-.03,0,.03.11.05.13l1.25,2.68s0,.03,0,.02h-.07s-.06,0-.06,0l-2.76-.09h-.05s-.12-.02-.12,0l.03.13.02.05v.04s.03.05.03.05l.87,2.67h-.05s-.04,0-.04,0h-.05s-.68-.16-.68-.16h-.05s-2.02-.45-2.02-.45l-.09-.02s0,.05,0,.06v.06s.65,2.96.65,2.96h-.07s-.05-.02-.05-.02h-.05s-2.43-.72-2.43-.72h-.05s-.25-.09-.25-.09h-.05s-.1-.04-.1-.04c-.03,0-.02.06-.02.11l.16,2.11.05.67s0,.07,0,.07l-.09-.03-.05-.02-2.7-1.11-.07,3.21-.96-.59-.04-.02-1.61-1.01s-.04.08-.05.13l-.55,2.78-2.26-1.68-.04-.03-.13-.09s-.07.1-.08.14l-.02.05v.04s-.03.05-.03.05l-.56,1.66-.02.05-.25.75-.04.1s-.08-.02-.1-.04l-.03-.04-1.76-1.67-.03-.03-.37-.34-.03.04-1.1,2.69-1.44-1.65-.54-.62s-.07-.11-.09-.09l-.09.12-.55.92-.73,1.21-.14.24s-.05.03-.06.02l-.05-.08-1.6-2.53-1.8,2.23-.08.09s-.05-.04-.06-.07l-.02-.05-.99-2.32-.19-.45-.79.82-.03.03-.43.45-.8.84-.08.09s-.06.02-.06,0l-.03-.1-.88-2.89h-.05s-2.33,1.87-2.33,1.87l-.04.03-.08.06s-.03-.05-.04-.07v-.06s-.01-.05-.01-.05v-.05s-.01-.06-.01-.06l-.22-1.68-.03-.24-.09-.68v-.05s-.01-.05-.01-.05v-.05s-.02-.1-.03-.09l-.08.05-2.46,1.54-.02-3.12-.07.02-.04.02-1.48.6-.04.02-1.06.43-.19.08s-.04,0-.04,0v-.07s.01-.06.01-.06ZM516.05,41.41l5.2-1.4-.42-1.58-5.2,1.4-.78-2.89,5.64-1.52-.45-1.67-7.53,2.04,2.96,11.03,7.64-2.05-.45-1.68-5.74,1.55-.86-3.22ZM503.51,39.99l3.41-.91,2.51,9.36,1.9-.51-2.52-9.37,3.44-.92-.45-1.67-7.18,1.92-8.77,2.36.45,1.67,3.42-.92,2.52,9.37,1.9-.51-2.52-9.37,1.89-.5ZM497.76,48.45l1.8,2.64,2.03-.55-7.13-9.91-2.02.53-1.19,12.16,1.95-.52.24-3.21,4.32-1.16Z"/>
      <path class="st2" d="M529.4,69.81c-1.17,1.27-3.21,1.18-4.27-.17-.75-.96-.75-2.35,0-3.32.79-1.03,2.21-1.36,3.39-.82.99.45,1.6,1.41,1.59,2.5,0,.68-.23,1.31-.7,1.81ZM527.29,70.25c.94.02,1.74-.51,2.09-1.36.25-.61.24-1.3-.03-1.91-.37-.82-1.17-1.31-2.07-1.29-.97.02-1.79.65-2.07,1.58-.14.49-.13,1,.03,1.49.3.88,1.1,1.46,2.05,1.48Z"/>
      <polygon class="st2" points="478.52 53.29 476.18 52.52 477.87 50.82 478.52 53.29"/>
      <polygon class="st2" points="477.65 50 475.27 49.12 477.01 47.6 477.65 50"/>
      <polygon class="st2" points="479.31 56.17 477.42 56.05 478.75 54.16 479.31 56.17"/>
      <polygon class="st2" points="496.86 47.1 493.56 48 493.93 42.76 496.86 47.1"/>
      <path class="st2" d="M528.67,69.54l-.52.02-.83-1.36h-.55s0,1.36,0,1.36h-.47s0-3.15,0-3.15h1.29c.17,0,.35.04.51.08.3.11.49.35.51.67.02.26-.01.53-.19.73-.16.17-.37.24-.61.28l.89,1.37ZM528.1,67.31c.02-.22-.09-.38-.28-.45-.11-.03-.25-.06-.37-.06h-.69s0,.98,0,.98l.92-.02c.24,0,.42-.2.41-.46Z"/>
    </g>
  </g>
  <g id="QhohFV.tif">
    <g>
      <path class="st2" d="M744.97,72.1h-3.13c-3.34-.23-6.61-.95-9.73-2.35-7.23-3.26-13.05-9.56-15.22-17.32,1.63,3.82,3.63,7.18,6.66,10.03,3.34,3.13,7.32,5.39,11.75,6.65,5.62,1.58,11.55,1.49,17.11-.28,4.11-1.31,7.79-3.49,10.91-6.43s4.98-6.16,6.64-10c-2.26,8.02-8.41,14.53-16.07,17.69-2.89,1.19-5.88,1.77-8.92,2.01Z"/>
      <polygon class="st2" points="796.63 48.71 796.63 51.44 796.2 51.43 788.32 50.65 788.31 37.64 791.37 37.9 791.37 48.2 796.63 48.71"/>
      <path class="st2" d="M748.08,24.4c-.71-.21-1.15.19-1.93.01-1.32-.3-1.82-.84-3.81-.01l1.91-.17c.14-.01.42.17.58.34l-.77.13.47.07c-.09.1-.21.25-.24.35-.02.07.79.53,1.06.59.23.05.58-.14.84-.31l.14.46-.83.09-1.62.11-.31.04c-.08.01-.14-.19-.17-.31l.83-.24-.07-.09-1.62.12c-.51.04-1.05-.09-1.39.44l.27.31-1.46-.17-.08.11.39.13c-.52-.06-.92.02-1.17.39l-.35-.02c-.13.22-.35.47-.58.69v-.65c-.23.3-.16.62-.18.99-.18.32-.8.43-1.17.56l-1.55.56c-.6.22-.9.69-.79,1.41.15.96-.5,1.68-.64,1.49-.33-.44-.44-1.12-.27-1.77l-.24-.38c-.06-.09-.34-.03-.47-.02-.33-.2-.71-.37-1.09-.44-.41-.08-.74.05-.8.44l-.59-.04c-.57-.42-1.16-.4-1.77-.1-.38.19-.91.38-1.08.81-.37.96-1.59,1.88-.97,3.62l-2.64.1c-.15-.19-.37-.64-.38-.88l.46-.8-.2-1.58-.05-1.54c0-.29.39-.68.1-1.06-.24.37-.36.82-.42,1.3l-.21,1.66-.06.65-.5-.71c.63-.57,0-1.1.13-1.22l.3-.3c.05-.55.13-1.07.4-1.57.18-.34.15-.66.18-1.03.05-.54.52-.96.75-1.61-2.7,2.08-4.57,4.87-6.44,7.83,3.81-9.24,13.19-15.83,23.06-16.55l.98-.07h2.71s1.07.08,1.07.08c10.12.74,18.95,7.21,23.04,16.51-.7-.54-.81-1.41-1.38-2.01l-.6-.64c-.35-.37-.74-.59-1.01-1.01-.21-.32-.52-.52-.82-.76l-1.45-1.11c0,.43.25.63.52.89l.58.55,1.19,1.05c-.28-.06-.32,0-.21.13.11.18.22.41.22.56v.77s-.67-.56-.67-.56c.13-.08.28-.12.53-.19-.05-.24-.33-.6-.6-.84l-1.68-1.45c-.08-.07-.3-.29-.35-.22-.07.08-.17.29-.25.44l-.78-.06.31.74c-.85.66.06,1.15-.24,2.13l-1.2.62c-.22-.44-.73-.59-1.18-.27-.13-.39-.31-.65-.56-.84-.06-.7-.22-1.35-.82-1.9.28-.22.58-.27.97-.29l1.36-.09-.49-.99c-.31-.62-1.26-.51-1.59-.85-.04-.04.16-.16.22-.17h.55s-.24-.29-.24-.29l.52-.06c.12-.01.08-.34.05-.48l.38-.54-.08-.35c-.02-.07.18-.16.32-.23l-.86-.75s-.1-.15-.12-.18.03-.14.06-.13l.24.08.6.49c.1-.54-.42-.67-.76-.84l-.5-.25-.3.39c-.62-.35-1.34-.8-1.51-1.35-.03-.09.11-.23.24-.41-1.59-.88-3.25-1.54-5-2.12l-1.13.32c-1.29-.37-1.1,1.07-1.6.9l-1.18-.4c-.41-.14-1.92-1.5-1.35-1.65.2-.05.42-.13.6-.24l-2.3-.26.16.26c.03.05-.13.14-.16.14l1.52.71c-.76.57-1.09-.22-1.74-.17l.83.66-.36.19c-.08.04-.24-.09-.38-.17l-.05.29-1.22-.44c-.67-.45-1.23-.72-2.08-.71.08-.09.31-.2.43-.18l.73.11.93-.32c-1.14-.67-2.17-.38-3.49-.27l.6.54-1.17-.08c-.08,0-.24-.05-.3-.06-.07-.02.07-.2.2-.32-1.29.09-2.73.31-3.72,1.18l.3.26c.06.05-.02.24-.05.34.33.13.79.26,1.06.47.47.37.93.51,1.56.61-.24.27-.36.82-.07,1.06.13.11.63.08.69-.08l.25-.69c.39-.07,1-.03,1.3-.37.17-.19-.11-.55-.35-.7l.47-.21.3-.65c.56.09,1.11.15,1.51.4l.8.49c-.1.25.03.58.34.71.47.2.93.06,1.4-.24.9.7.94,1.49,1.24,1.66l.9.5.74.57c.04.11-.29.37-.45.4l.02.09h.15s.07.13.06.11l-.5.31.84.27.63.24-.05.33.35.27c.08.06.09.24.02.5l-.6-.43-.78.02.27-.18-1.89-.45c.32-.54.88-.88,1.41-.99l-.04-.08ZM761.43,24.78c-.04-.32-.25-.52-.59-.64l-.26.57.86.07Z"/>
      <path class="st2" d="M737.28,64.61l-.47.19c0,.13,0,.37-.08.41l-.49.26.63.46-.66.83.11.37.74.81c-1.4-.11-2.32-1.14-2.79-2.29.04-.09.12-.24.08-.28l-.23-.18.11-.89c-.04-.06.1.13.23.29l-.02-.85c-.08,0-.13,0-.11,0l-.17.45c-.26-.61.09-1.29-.32-2.05.19-.58.49-1.24.44-1.87-.04-.47-.08-.91,0-1.37.17-.97.26-1.85.32-2.85.03-.59.3-1.34,0-1.92-.4-.78-1.16-1.22-1.81-1.76-.41-.35-.62-.95-.83-1.45,7.01-.23,13.97-.24,20.88-.11.15,1.38-.39,2.4-1.47,3.02l-1.66,1.16c-.35.25-.64.41-.74.86-.22.99-.93,1.83-1.69,2.51-.34.3-.65.66-1.11.68-.46-.26-.88-.18-1.22.13-.59.02-1.14.24-1.6.62l-.14.79-.99.78c-.11-.02-.36-.02-.45.02-.13.06-.24.28-.12.46-.31.27-.85.67-1.29.79-.52.14-.88-.37-1.34-.56l.3.41.17.88c-.61.62-1.7.08-1.77.32l-.15.51-.8-.21c-.02.26.07.39.51.63Z"/>
      <polygon class="st2" points="707.88 49.96 704.82 50.23 704.82 37.17 707.77 36.92 713.23 43.76 713.26 36.54 716.33 36.35 716.33 49.41 713.83 49.57 707.89 42.11 707.88 49.96"/>
      <path class="st2" d="M761.3,48.91l-3.47-.1-2.71-4.72-2.13-.03v4.62s-3.04-.03-3.04-.03v-13.07s7.32.17,7.32.17c1.46.03,2.62.97,3.13,2.26.79,2.38.3,4.91-2.17,5.76l3.07,5.13ZM757.52,39.93c.04-.84-.57-1.44-1.36-1.46l-3.18-.09v2.95s3.24.04,3.24.04c.79,0,1.37-.63,1.3-1.44Z"/>
      <polygon class="st2" points="745.35 43.37 740.65 43.37 740.65 45.86 747.64 45.85 747.64 48.62 737.64 48.65 737.62 35.58 747.57 35.56 747.58 38.3 740.65 38.3 740.65 40.61 745.36 40.61 745.35 43.37"/>
      <path class="st2" d="M764.85,48.98l-2.23-1.1v-3.08c1.15.7,2.22,1.32,3.45,1.75,1.37.48,3.27.66,3.51-.54.1-.47-.16-.97-.65-1.18l-3.36-1.46-1.4-.78c-1.16-.65-1.71-1.89-1.71-3.22,0-1.24.56-2.34,1.66-2.97s2.45-.78,3.74-.55c1.49.24,2.86.77,4.17,1.5v3.06c-1.08-.69-2.16-1.22-3.35-1.61-1.16-.36-2.84-.44-2.99.33-.41,2.15,7.94,2,7.1,7.2-.56,3.46-4.82,3.83-7.92,2.67Z"/>
      <path class="st2" d="M691.44,47.24v-8.79s3.08-.34,3.08-.34l.02,8.4c0,.71.34,1.5.96,1.8.93.45,2.12.24,2.89-.43.55-.48.66-1.21.77-1.92v-8.3s3.1-.29,3.1-.29v7.96c-.02,2.46-.92,4.58-3.26,5.47-1.37.52-2.86.67-4.31.43-2.05-.34-2.97-1.92-3.26-4Z"/>
      <path class="st2" d="M782.77,47.72l-5.4-.4-1,2.39-3.27-.22,5.57-12.67,2.76.21,5.56,13.5-3.25-.27-.98-2.54ZM781.67,44.92l-1.61-4.15-1.62,3.89,3.23.26Z"/>
      <polygon class="st2" points="728.64 48.87 723.27 36.03 726.68 35.88 729.79 43.93 732.9 35.69 736.32 35.63 730.94 48.8 728.64 48.87"/>
      <polygon class="st2" points="721.97 49.12 718.89 49.27 718.89 36.22 721.97 36.07 721.97 49.12"/>
      <path class="st2" d="M757.64,26.28l.35-.47-.42-.1-.11-.52.27-.09c.07-.02-.16-.28-.22-.35-1.11-.2-1.72-1.16-1.4-1.26l.49-.15.02.34c.2,0,.46-.01.51.09l.19.45,1.45.98c.16.11.42.1.45.31.03.23.07.29.19.54l-1.77.23Z"/>
      <path class="st2" d="M755.85,26.23c-.17-.57-.18-.69-.4-.99l.29-.56c.06-.11.39-.29.5-.24.13.06.23.25.32.41l.35.58-1.06.81Z"/>
    </g>
  </g>
  <g id="_x36_4cMcX.tif">
    <g>
      <path class="st2" d="M933.27,33.24v.07s-9.18,13.74-9.18,13.74c-2.39,3.6-5.12,6.16-9.34,7.38-1.36.39-2.72.67-4.13.78l-2.19.16-1.2.02-.04.04h-78.94s0-22.19,0-22.19h105.04ZM859.11,50.79c3.46-.68,5.87-3.64,5.46-7.18-.24-2.08-1.41-3.88-3.27-4.88-1.17-.63-2.48-.91-3.82-.91-.71,0-1.36.06-2.04.23-3.18.78-5.41,3.45-5.19,6.77.1,1.49.64,2.87,1.67,3.96,1.8,1.92,4.63,2.51,7.19,2.01ZM851.63,50.39c-.87-.19-1.6-.59-2.26-1.16-.47-.43-.88-.86-1.32-1.34l-3.7-4.3,5.62-5.32h-3.03s-5.01,4.89-5.01,4.89l-.61.63v-4.54c0-.51-.39-.91-.88-.98h-2.78s-.12.08-.1.11l.08.09c.45.15.68.51.7,1v11.06s2.98,0,2.98,0v-6.05s3.91,4.57,3.91,4.57c.55.54,1.13.96,1.84,1.23,1.46.54,3.02.51,4.57.37.05,0,.14-.09.13-.13,0-.04-.09-.11-.13-.12ZM877.58,50.5c.53,0,.91-.45.93-.96v-11.28s-2.01,0-2.01,0v7.01s.02.87.02.87l-1.09-1.34-5.19-5.99c-.31-.36-.75-.53-1.21-.53h-2.86s-.14.07-.12.1c.11.18.72.19.79,1.06v11.08s2.01,0,2.01,0v-8.04s-.02-.96-.02-.96l1.28,1.61,6.36,7.39h1.11ZM888.56,47.69l1.25,2.82h3.38s-5.34-11.51-5.34-11.51c-.24-.45-.63-.72-1.13-.74h-2.35s-.12.04-.12.07c.02.13.62.34.35,1.14l-5.16,11.03h2.28s1.28-2.81,1.28-2.81h5.57ZM905.9,42.77l1.24,7.74h3.04s-1.84-11.22-1.84-11.22c-.15-.56-.58-1.02-1.17-1.02h-1.8s-2.95,6.83-2.95,6.83l-.36.86-.2-.52-2.75-6.42c-.21-.49-.68-.75-1.18-.76h-2.65s-.09.05-.09.07l.04.1c.41.14.57.49.55.94l-1.83,11.13h1.9s1.21-7.83,1.21-7.83l.14-1,.47,1.12,3.29,7.71h.98s3.43-8.1,3.43-8.1l.33-.84.17,1.2ZM915.68,50.51v-11.23c0-.51-.37-1.01-.9-1.01h-2.86s-.12.02-.13.06.05.1.08.13c.43.14.69.52.71,1v11.05s3.1,0,3.1,0Z"/>
      <path class="st2" d="M857.41,49.71c-1.12,0-2.1-.53-2.75-1.41-1.25-1.69-1.36-4.21-.79-6.19.46-1.61,1.55-2.9,3.28-3.03,2.14-.16,3.51,1.48,3.95,3.46.63,2.86-.21,7.16-3.69,7.16Z"/>
      <polygon class="st2" points="887.9 46.2 883.67 46.2 885.81 41.49 887.9 46.2"/>
    </g>
  </g>
  <g id="Fb2I7i.tif">
    <g>
      <path class="st2" d="M1013.46,54.05c-1.61,1.8-4.01,3.81-6.44,3.58-1.2-.11-1.87-1.06-1.72-2.31-.92.99-1.85,1.77-3.1,2.15-1.81.55-3.65-.11-3.99-1.9-.13-.66-.03-1.32.09-2-2.09,2.14-4.63,3.97-7.71,4.09-.85.03-1.69-.21-2.3-.77-.77-.71-.91-1.73-.79-2.76-.98,1.1-1.94,2.04-3.15,2.72-1.44.82-3.56,1.29-4.53.12-.4-.49-.42-1.06-.38-1.69-1.26,1.53-3.16,2.72-5.13,2.31-1.11-.23-1.9-1.11-2.01-2.25s.12-2.26.61-3.33c1.16-2.53,3.03-4.66,5.41-6.11,1.32-.8,2.75-1.25,4.26-1.03.76.11,1.37.61,1.48,1.31l.76-1.02h3.74s-4.81,8.27-4.81,8.27c-.45.78-1.02,1.74-.64,2.2.43.51,1.6-.1,2.36-.79,1.29-1.16,2.33-2.52,3.27-4,1.99-3.12,5.12-6.23,8.97-6.03.76.04,1.49.33,1.87.97.42.7.4,1.51.03,2.27-.3.62-.92,1.21-1.74,1.32-.48.06-.97-.08-1.23-.4-.28-.35-.32-.88-.14-1.31.31-.73,1.03-1.1,1.82-1.22-.41-1.15-2.17-.24-3.11.75-1.6,1.68-3.72,4.87-3.78,7.06-.02.71.49,1.26,1.2,1.3,3.07.18,6.21-4.03,8.06-6.44s4.61-4.6,7.61-4.28c.8.09,1.45.54,1.63,1.38.2-.39.45-.81.77-1.06h3.7s-4.96,8.54-4.96,8.54c-.41.71-.86,1.57-.44,1.97.49.46,1.74-.35,2.49-1.04,1.35-1.25,2.41-2.71,3.42-4.26,1.93-2.98,5.74-6.4,9.37-5.39,1.16.32,1.8,1.32,1.73,2.54s-.58,2.29-1.12,3.42l2.4-.31c3.01-5.48,6.28-10.36,11.02-14.4,1.35-1.15,3.2-2.36,4.91-2.17,1.01.12,1.59,1.01,1.35,2.03-.21.89-.62,1.72-1.14,2.52-2.91,4.48-7.31,8.72-11.97,11.41-.79,1.2-2.3,4.21-1.89,5.18.12.29.63.3.91.21,2.06-.68,4.01-3.28,5.3-5.13.67-.96,1.36-1.84,2.19-2.67,1.7-1.72,4.16-3.18,6.55-2.69.7.14,1.22.63,1.3,1.31l.77-1.05h3.73s-5.09,8.78-5.09,8.78c-.35.61-.65,1.33-.35,1.69.39.47,1.71-.14,2.46-.8,1.24-1.08,2.32-2.29,3.15-3.72l2.85-4.86-1.68-.04c.1-.3.37-.89.72-.98.51-.14,1.04-.08,1.59-.07l1.45-2.4c.15-.25.77-.49,1.06-.54l3.65-.6-2.02,3.52,3.38.02c-.13.41-.39.85-.74,1.06l-3.3.02-4.5,7.83-.54,1.12c-.06.12,0,.42.07.53.73,1.09,3.51-1.63,4.54-2.81l.75.62c-1.69,1.98-4.01,4.27-6.73,4.13-.85-.04-1.63-.4-2.02-1.17-.27-.54-.26-1.17-.22-1.81-.87.87-1.75,1.66-2.82,2.23-1.45.77-3.52,1.21-4.44,0-.37-.49-.36-1.06-.36-1.64-1.52,1.93-4.52,3.23-6.26,1.75-.83-.71-1-1.83-.85-2.88-.03-.09-.04-.15-.03-.09-1.8,1.82-4.06,3.73-6.59,3.6-1.27-.06-2.06-1.01-1.94-2.28.11-1.19.58-2.32,1.12-3.47l-2.51.31-1.88,2.34c-.85,1.06-1.99,1.83-3.2,2.46-2.03,1.04-4.92.99-5.53-1.25-.15-.55-.12-1.1-.07-1.7ZM1041.31,39.58c.73-.91,2.18-3.19,1.81-3.76-.55-.85-2.28.95-3.09,1.89-2.87,3.29-5.39,6.81-7.62,10.57,3.38-2.21,6.4-5.56,8.9-8.7ZM978.38,54.85c.65-.64,1.16-1.33,1.61-2.09l2.73-4.66c.21-.35.36-.77.44-1.14s-.21-.73-.6-.74c-2.44-.02-5.42,4.62-6.22,7.13-.18.56-.23,1.1-.03,1.67s1.34.55,2.08-.17ZM1003.07,55.42c.56-.1,1.07-.41,1.43-.82.55-.63,1.02-1.27,1.45-2l2.79-4.8c.21-.36.39-.96.18-1.3-.23-.36-.8-.32-1.17-.19-2.22.76-4.39,4.15-5.33,6.39-.25.6-.4,1.23-.38,1.86.02.55.43.96,1.03.86ZM1040.21,54.8c.64-.65,1.15-1.34,1.59-2.1l2.83-4.86c.23-.39.44-1,.17-1.37-.24-.33-.83-.28-1.19-.14-2.21.85-4.25,3.99-5.21,6.2-.41.94-.71,2.25-.13,2.73.46.38,1.4.09,1.94-.46ZM1023.5,50.81c.73-1.2,1.6-3.53.75-4.26-.64-.55-1.58-.35-2.09.3-.69.88-.74,2.15-.08,3.08.33.47.88.7,1.42.88ZM1022.72,52.08c-1.7-.52-2.69-1.46-2.83-3.23-1.3,1.57-2.29,3.43-2.49,5.41,0,.7.46,1.2,1.18,1.17,1.47-.06,3.16-2.07,4.14-3.36Z"/>
      <path class="st2" d="M1023.61,59.79c8.31-.15,17.43.26,25.41,2.48,2.26.63,4.39,1.38,6.46,2.44,1.1.56,2.15,1.11,3.08,2.09-4.96-.71-10.21-.67-14.6,1.87-4.52-5.36-12.98-6.67-19.7-6.96-3.43-.15-6.74,0-10.17.37-2.9.31-5.66.69-8.5,1.32l-11.03,2.42c-3.2.7-6.28,1.35-9.53,1.82-4.3.62-9.55,1.08-13.8.53-5.81-.75-10.45-4.22-10.89-10.31-.41-5.61,2.42-11,6.29-14.99,3.28-3.37,7.27-5.86,11.74-7.39,3.91-1.34,9.55-2.15,13.43-.85.9.3,1.72.82,2.27,1.57.76,1.04.79,2.4.13,3.48s-1.82,1.62-3.09,1.41c-.64-.11-1.18-.54-1.43-.99-.66-1.2.11-2.6,1.55-3.29-.51-1.05-2.07-1.29-3.37-1.31-3.14-.05-6.15.78-8.93,2.27-3.5,1.89-6.49,4.55-8.77,7.81-2.49,3.55-4.2,8.08-3.45,12.39.66,3.76,3.58,5.78,7.17,6.61,5.24,1.21,13.8.43,19.22-.63l9.74-1.91c6.86-1.35,13.75-2.12,20.76-2.25Z"/>
      <path class="st2" d="M1006.27,32.28c-.49-.04-.91-.31-1.04-.68-.16-.45-.03-1,.38-1.29l2.43-1.71c.61-.43,1.39-.18,1.97.17l.24-.48,4.23,1.71c.89.36,1.91.32,2.77-.09,1.39-.67,2-2.26,1.54-3.72-.47.44-1,.68-1.53.71l.16-.71c-.76.74-1.76,1.14-2.7.46.41-.14.71-.3.9-.57-.55-.06-.96-.16-1.49-.37.1.39.14.85.12,1.28l-.62-.26c.1.45.12.78.03,1.2-.27-.28-.39-.44-.54-.49-.24-.07-.59.11-.64.29-.21.67.54.73.52,1.1-2.58-.98-4.84-2.35-6.92-4.08-.52-.43-1.07-.73-1.68-.97-.45.25-.81-.14-1.04-.45l1.25-2.87c.51-.03.9.01,1.08.42.7.24,1.38.39,2.11.44,1.67.11,3.24.39,4.87.77l3.77,1.31c.13.01.42-.05.45-.16s-.06-.32-.17-.52c.75-.03,1.41.47,1.66,1.32l.23-.54c.2.21.39.5.53.85l6.22,2.29-2.74,6.3-2.27-.91-1.03.81c-.23.18-.87.26-1.18.2l-1.91-.39-.44,1.9c-.83-.2-1.61-.39-2.46-.45l-3.54-.27.98-2.47-2.02-.84-1.31.74c-.05.63-.5,1.08-1.18,1.03ZM1012.01,27.05c.03-2.22,1.61-3.51,3.81-3.5-1.32-.41-2.67.04-3.66.9l.28.13c-.37.73-.79,1.56-.44,2.47ZM1008.76,29.96l.66.25.4-.91c-.34-.23-1.01-.61-1.46-.3l-2.4,1.67c-.23.16-.31.6-.2.81.13.26.48.35.74.28.31-.08.43-.41.42-.76l1.83-1.04ZM1019.76,31.74l-1.6-.67-.37,1.31c.83.29,1.45-.03,1.98-.64Z"/>
      <path class="st2" d="M1012.59,37.44l-1.25,1.23c-.59.58-1.47.73-2.2.31l-2.49-1.44,1.13-1.92,1.72.66,1.05-1.86c2.16.05,4.87.05,6.58,1.24.81.56,1.28,1.42,1.68,2.29l-1.99,1.14c-.49-.92-1.24-1.53-2.25-1.57l-1.98-.07Z"/>
      <path class="st2" d="M1021.16,38.5l-2.8,1.97c-.33-.42-.55-.79-.74-1.25l1.5-1h1.36c.2-.01.42.08.69.29Z"/>
      <path class="st2" d="M1006.18,37.25l-1.37.48c-.17.06-.46.02-.65-.06l1.87-2.76c.42.26.78.55,1.15.92l-1,1.42Z"/>
      <polygon class="st2" points="1003.36 22.03 1003.07 22.67 1002.81 23.34 1002.23 22.98 1003.51 20 1004.21 20.01 1003.96 20.66 1003.65 21.35 1003.36 22.03"/>
      <path class="st2" d="M1017,28.74l.18-.12s.2.05.19.1c-.07.76-1.87,1.2-2.76.27-.06-.06-.11-.2-.12-.27s.22-.08.31-.08c.57.7,1.56.71,2.19.1Z"/>
      <path class="st2" d="M1016.95,27.26c.24-.1.56.03.66.27.07.16-.05.47-.26.58-.16.08-.48,0-.62-.19s-.06-.54.22-.66Z"/>
      <path class="st2" d="M1014.74,27.28c.19-.09.52,0,.64.16.13.18.07.52-.17.66-.16.09-.5.03-.63-.14-.15-.19-.09-.55.17-.68Z"/>
    </g>
  </g>
</svg>