<?xml version="1.0" encoding="UTF-8"?>
<svg id="Capa_1" xmlns="http://www.w3.org/2000/svg" version="1.1" viewBox="0 0 90 90">
  <!-- Generator: Adobe Illustrator 30.4.0, SVG Export Plug-In . SVG Version: 2.1.4 Build 226)  -->
  <defs>
    <style>
      .st0 {
        fill: #e5236d;
      }

      .st1 {
        fill: #fff;
      }
    </style>
  </defs>
  <path class="st1" d="M60,31c0,3.31-2.69,6-6,6-7.97-1.47-8-10.52,0-12,3.31,0,6,2.69,6,6Z"/>
  <g>
    <path class="st0" d="M59.77,39.88c.97,1.07,1.04,2.61.86,4.02-.59,4.69-3.33,9.02-7.43,11.4-8.84,5.34-20.17.14-22.53-9.78-.35-1.5-.61-3.24-.03-4.66.84-2.14,3.58-2.74,5.18-1.08,1.23,1.23,1.16,3.18,1.62,4.75.65,2.33,2.42,4.26,4.61,5.26,4.65,2.22,10.58-.7,11.63-5.72.37-1.57.42-3.46,1.76-4.54,1.24-1.1,3.21-.92,4.31.33l.02.02Z"/>
    <path d="M47.92,4.91c21.47,1.36,38.45,20.78,37.16,42.13-.67,18.6-15.67,35.27-34.14,37.74-3.94.57-7.94.56-11.88.01C17.63,81.74,2.27,61.27,5.21,39.84,7.74,18.96,26.87,3.29,47.9,4.91h.02ZM70.39,68.21c13.57-14.72,11.48-38.24-4.36-50.43-5.75-4.56-13.02-7.07-20.37-7.19-22.86-.66-40.29,21.99-33.71,44.03,3.93,13.97,17.23,24.47,31.78,24.83,10.03.39,19.92-3.78,26.65-11.22v-.02Z"/>
    <path d="M48.85,22.88c10.38,1.61,17.71,12.06,15.88,22.39-1.23,8.34-8.45,15.38-16.89,16.2h-.03c-8.04,1.08-16.31-3.39-19.79-10.72-5.56-11.16.9-24.95,13.11-27.67,2.51-.58,5.17-.65,7.72-.2ZM60.63,43.9c.18-1.41.11-2.95-.86-4.02l-.02-.02c-1.1-1.25-3.07-1.43-4.31-.33-1.34,1.08-1.39,2.97-1.76,4.54-1.05,5.02-6.98,7.94-11.63,5.72-2.19-1-3.96-2.93-4.61-5.26-.46-1.57-.39-3.52-1.62-4.75-1.6-1.66-4.34-1.06-5.18,1.08-.58,1.42-.32,3.16.03,4.66,2.36,9.92,13.69,15.12,22.53,9.78,4.1-2.38,6.84-6.71,7.43-11.4ZM50.09,34.96c.67-3.57-3.12-6.66-6.46-5.09-3.08,1.42-3.8,5.43-1.23,7.71l.02.02c2.7,2.5,7.01.88,7.67-2.64Z"/>
    <path d="M75.17,45.07c.43-.23.36,1.49.33,2-1.05,13.98-11.65,25.89-25.22,28.2-15.72,2.87-30.94-7.37-34.88-22.77-.39-1.46-.67-2.99-.84-4.51-.07-.61-.14-1.23-.13-1.83-.01-.36.03-.84.18-1.06.08-.09.18-.04.24.04.22.23.5,1.06.71,1.87.87,3.3,2.23,6.37,4.03,9.15,13.67,20.94,44,17.76,53.52-5.2.55-1.35,1.01-2.75,1.38-4.18.19-.55.3-1.29.67-1.71h.01Z"/>
  </g>
</svg>