<?xml version="1.0" encoding="UTF-8"?>
<svg id="Capa_1" xmlns="http://www.w3.org/2000/svg" version="1.1" viewBox="0 0 452.62 265.49">
  <!-- Generator: Adobe Illustrator 30.4.0, SVG Export Plug-In . SVG Version: 2.1.4 Build 226)  -->
  <path d="M112.07,61.46c0,30.68-23.81,56.77-55.1,56.77S1.88,92.13,1.88,61.46,25.68,4.68,56.97,4.68s55.1,26.1,55.1,56.77ZM56.97,83.74c11.29,0,20.6-9.16,20.6-22.28s-9.31-22.28-20.6-22.28-20.6,9.16-20.6,22.28,9.31,22.28,20.6,22.28Z"/>
  <path d="M109.37,72.9c6.41,7.48,15.72,16.94,26.1,16.94,3.82,0,8.24-2.59,8.24-7.02,0-7.02-8.85-10.84-17.7-16.94-9-5.95-17.86-14.19-17.86-29.46,0-22.13,15.41-31.75,36.02-31.75,5.95,0,12.82,3.21,15.11,3.21,2.44,0,4.58-.31,6.26-1.98v35.56c-2.29-4.58-9.31-12.06-14.96-12.06s-7.94,1.83-7.94,5.8c0,6.1,8.85,9.31,17.86,15.26,8.85,5.95,17.7,14.65,17.7,32.2,0,23.96-17.86,35.56-40.14,35.56-7.33,0-14.35-3.2-19.99-3.2-3.36,0-5.95.61-8.7,1.98v-44.11Z"/>
  <path d="M249.41,115.56c-4.55.97-11.14,1.93-19.05,1.48-3.64-.21-16.68-.91-27.81-7.37-16.52-9.6-27.24-27.6-27.24-48.2,0-30.68,23.81-56.77,55.09-56.77,2.29,0,4.12.31,5.8.61s3.36.61,5.19.61c3.05,0,6.26-.31,9-1.22v43.04c-5.04-5.34-12.06-8.7-19.23-8.55-12.67,0-21.37,10.53-21.37,22.59s8.7,21.98,21.37,21.98c7.17,0,14.19-3.36,19.23-9.46-.33,13.76-.66,27.52-.99,41.28Z"/>
  <path d="M319.38,7.12l36.17,99.2c1.53,4.12,3.82,7.02,6.26,9.46h-43.95c.76-1.68,1.07-3.82,1.07-5.8,0-3.36-1.22-6.56-2.29-9.77h-29.91c-1.68,2.75-2.59,6.72-2.59,9.92,0,1.68.46,3.97,1.68,4.88v.76h-44.26c3.97-3.82,5.8-9.31,7.94-15.11l30.22-81.96c.61-1.68,1.53-4.88,1.53-6.71,0-2.44-1.53-3.66-3.36-4.88h41.51ZM308.85,75.19l-7.17-33.42h-.61l-6.87,33.42h14.65Z"/>
  <path d="M355.7,4.68c2.44,2.14,5.8,3.51,9.77,3.51,6.56,0,13.89-3.51,26.25-3.51,23.5,0,42.58,13.28,42.58,38.31,0,8.55-3.82,17.4-9.62,23.81,12.21,6.26,21.67,21.06,21.67,38.92,0,3.36.92,7.33,3.51,10.07h-41.51c2.59-2.75,3.51-6.71,3.51-10.07,0-8.85-9.77-19.23-21.67-21.67v21.67c0,3.36.92,7.33,3.51,10.07h-41.51c2.59-2.75,3.51-6.71,3.51-10.07V4.68ZM390.19,55.96c5.65,0,12.97-1.98,12.97-10.07s-7.33-10.07-12.97-10.07v20.15Z"/>
  <path d="M.81,236.79c2.59-2.75,3.51-6.71,3.51-10.07v-101.03c2.44,2.14,5.8,3.51,9.77,3.51,6.56,0,13.89-3.51,26.25-3.51,25.79,0,47.77,14.96,47.77,42.58,0,23.81-18.92,41.51-42.28,41.51-2.14,0-4.43-.15-7.02-.46v17.4c0,3.36.92,7.33,3.51,10.07H.81ZM38.81,180.32h3.97c6.87,0,12.36-3.82,12.36-11.75s-5.49-11.75-12.36-11.75h-3.97v23.5Z"/>
  <path d="M87.26,138.2c0-3.36-.92-7.33-3.51-10.07h41.51c-2.59,2.75-3.51,6.71-3.51,10.07v55.1c0,8.55,2.14,12.97,9.77,12.97s9.46-4.43,9.46-12.97v-55.1c0-3.36-.92-7.33-3.51-10.07h41.51c-2.59,2.75-3.51,6.71-3.51,10.07v57.38c0,24.27-20.91,43.65-44.56,43.65s-43.65-19.38-43.65-43.65v-57.38Z"/>
  <path d="M219.27,128.12c-2.59,2.75-3.51,6.71-3.51,10.07v88.52c0,3.36.92,7.33,3.51,10.07h-41.51c2.59-2.75,3.51-6.71,3.51-10.07v-88.52c0-3.36-.92-7.33-3.51-10.07h41.51Z"/>
  <path d="M288.9,166.89c-5.04-3.51-12.06-6.87-18.01-6.71-12.67,0-21.37,10.53-21.37,22.59s8.7,21.98,21.37,21.98c3.05,0,5.49-.61,6.87-1.83v-8.55h-10.53c-2.14,0-4.58.3-6.41,1.07v-26.25c1.83.76,4.27,1.07,6.41,1.07h41.67v43.34c0,3.66,1.07,6.72,2.75,9.77-8.39,8.55-24.27,15.87-41.51,15.87-31.29,0-55.1-26.1-55.1-56.77s23.81-56.77,53.87-56.77c2.29,0,4.12.31,5.8.61,1.68.31,3.36.61,5.19.61,3.05,0,6.26-.31,9-1.22v41.21Z"/>
</svg>