<?xml version="1.0" encoding="UTF-8"?>
<svg id="Capa_1" xmlns="http://www.w3.org/2000/svg" version="1.1" viewBox="0 0 420.42 169.06">
  <!-- Generator: Adobe Illustrator 30.4.0, SVG Export Plug-In . SVG Version: 2.1.4 Build 226)  -->
  <defs>
    <style>
      .st0 {
        fill: none;
      }

      .st1 {
        fill: #010101;
      }

      .st2 {
        fill: #fff;
      }

      .st3 {
        fill: #e6286e;
      }
    </style>
  </defs>
  <path class="st0" d="M225.12,54.87c1.95-.93-.27-.46-1-.28-18.24,5.01-40.93,11.39-59.24,12.48,1.32,6.09,1.92,12.38,1.73,18.76,4.98-4.71,10.28-8.98,15.95-12.24,13.36-7.02,29.3-12.66,42.57-18.72Z"/>
  <path class="st3" d="M240.11,146.57c7.21-2.18,13.06-7.44,19.94-10.36,2.12-.96,4.59-1.68,7-1.58,2.06.1,1.4,1.34.31,2.22-2.25,1.95-7.67,6.52-4.4,9.52.94.68,2.15.95,3.3,1.14,5.54.73,11.09.53,16.22-1.15.72-.28,1.37-.66,1.86-1.24.91-.96,1.08-2.67,1.64-3.45.53-.67,1.22-.44,2.04-.05,15.57,9.44,38.15,12.24,52.85-.25l.17-.14c9.59-8.01,10.33-17.56-2.6-21.85-1.07-.39-1.72-.56-2.73-1.16-1.08-.65-.24-1.68.58-2.12,2.34-1.41,5.18-1.81,7.77-2.55.77-.25,1.75-.62,1.87-1.5.06-.49-.25-1.09-.76-1.66-1.58-1.68-3.52-2.83-5.59-3.64-10.68-3.93-25.09-1.2-34.83,4.41-2.97,2.87-3.75,7.8-7.15,10.53-3.28,3.52-8.94,5.22-11.45,9.3-.56.87-.7,2.33-1.47,2.98-.34.17-.62-.21-.78-.53-.9-2-.77-4.36-.19-6.37,1.02-3.6,3.65-6.83,5.56-10.12,1.2-2.02,1.77-4.77-.03-6.61-3.42-3.88-9.89-4.91-14.03-1.61-3.73,2.73-5.6,7.43-9.48,10.1-3.43,2.56-7.63,3.83-11.27,6.04-5.22,2.87-9.89,6.75-13.87,11.14-2.86,3.3-6.1,6.02-8.87,9.3-2.82,4.51,6.25,1.88,8.4,1.27ZM335.17,110.43v.04c-.15.22-.74.32-1.1.4-.49.09-1.01.19-1.52.29-1.88,0-3.77,0-5.65.05-1.88.05-3.74.14-5.61.33-1.91.19-3.81.42-5.71.69-2.17.32-4.32.72-6.45,1.21,6.49-3.71,19.74-6.72,26.04-3.01ZM302.29,128.22c3.96-8.73,16.76-12.6,25.76-10.13,1.42.4.69.95-.25,1.3-3.75,1.43-7.33,3-10.23,5.62-.35.32-.75.77-.84,1.19-.3,2.31,8.82,3.68,10.63,3.49,1.67,0,3.5-.58,5.07-.85.4-.05.68-.04.79.06.39.3-1.38,1.66-2.31,2.16l-.17.09c-5.71,2.95-12.88,3.95-19.09,2.65-2.65-.41-4.3-2.63-6.4-3.99-1.74-.78-3.91,1.02-2.97-1.59ZM302.06,134.1c.19-.09.54.06.8.15.48.2,1,.38,1.53.56.31.26.62.51.96.73,2.07,1.35,4.31,2.34,6.7,2.99,2.41.66,4.89.94,7.39.92.86,0,1.71-.07,2.55-.15-.16.35-1.06.66-1.35.82-4.21,1.84-9.22,1.43-13.32-.48-2.36-1.16-4.87-2.95-5.3-5.49l.04-.04ZM285.61,112.73v.07c-.55.36-1.12.71-1.71,1.04-1.75-.08-3.49-.02-5.23.2-1.51.19-3,.48-4.47.85,2.32-3.05,8.75-5.1,11.41-2.16Z"/>
  <path class="st3" d="M380.02,146.94c-4.73-2.02-9.62-4.11-13.89-6.91-1.48-.92-3.04-1.94-4.52-2.86-1-.56-1.97-1.41-3.11-1.05-1.72.87-3.07,3.43-3.2,5.31.24,1.92,3.32,1.65,4.79,2.21,6.75,1.59,13.43,3.97,20.53,4.14l.12-.02c.74-.17-.33-.65-.72-.82Z"/>
  <path class="st3" d="M205.9,47.93c15.15-4.1,30.57-10.09,46.35-7.48,3.5.74,6.81,2.4,8.6,5.68.31.65.74,1.53.33,2.18-.54.78-2.76,0-4.43.28-2.14.26-3.78,1.79-5.27,3.23-2.16,2.18-4.42,3.93-6.95,5.57-18.11,10.62-38.39,16.66-57.17,26.36-8.06,4.36-15.92,11.15-22.68,18.48-3.2,14.02-10.32,26.99-20.06,37.51,1.53,7.76,10.64,10.21,23.41,6.59,6.11-1.69,11.8-4.16,17.59-6.62,3.03-1.14,6.46-3.57,9.82-3.03,1.89.87-.93,2.89-1.69,4.74-2.64,6.32,6.58,6.43,10.57,6.21,15.21.48,24.16-14.46,34.02-23.71,3.78-3.52,8.2-6.37,12.8-8.73,8.34-3.92,14.19-6.04.79-8.42-22.02-3.45-26.17,23.05-45.83,25.42-4.14.16-.49-3.07.61-4.46,3.4-4.42,6.97-8.76,10.99-12.63,5.4-4.84,9.39-8.16-.41-10.81-12.72-3.04-16.72,4.85-24.31,12.82-2.52,2.52-5.17,4.93-8.28,6.72-3.13,1.86-6.59,3.16-10.15,3.89-2.43.48-4.83,1.21-6.16,3.41-.92,1.36-1.51,3.5-2.47,3.53-1.01-.07-1.52-1.31-1.78-2.18-1.28-5.05,1.14-10.26,4.02-14.38,20.12-25.62,50.65-32.42,79.34-44.26,6.14-3.23,12.5-8.04,17.87-12.74,4.84-4.18,9.27-8.57,11.62-14.94,8.08-23.16-14.14-24.91-30.94-22.04-20.68,3.62-40.63,11.42-61.43,14.01-10.58,1.02-21.2,1.4-31.84.7,3.63,5.41,6.63,11.25,8.91,17.38,11.67-.34,28.74-3.75,44.2-8.26ZM234.71,116.86c2.37-3.2,6.03-5.07,9.76-6.19,2.37-.68,5.81-1.38,7.83.33v.06c-.11.3-1.34.64-2.34,1.17-.64.06-1.28.14-1.91.23-2.51.38-4.99,1.09-7.39,1.91-2.07.71-4.05,1.58-6,2.56.02-.02.04-.05.05-.07ZM203.45,111.91c3.86-2.7,10.37-4.99,14.7-2.27v.06c-.1.28-.55.42-.83.55-.13.06-.28.12-.43.19-1.68.22-3.35.47-5.01.82-2.02.42-4.01.98-5.97,1.65-1.97.67-3.86,1.52-5.7,2.48.06-.83,2.59-3.06,3.24-3.47ZM163.82,138.89c.82.28,1.67.47,2.53.56.42.14,1.13.27.9.69-3.18,2.64-8.72,1.01-10.73-2.46-1.2-1.82-1.5-5.09-.12-6.85.07.4.16.8.3,1.18.57,1.64,1.53,3.15,2.81,4.32,1.25,1.14,2.71,2.01,4.31,2.56ZM253.4,26.57c7.66.29,19.02,2.39,20.41,11.44l.03.2c.32,2.72.08,7.1-1.45,2.75-2.6-6.32-8.65-10.65-14.88-12.87-.41-.34-6.37-1.47-4.11-1.52Z"/>
  <path class="st3" d="M326.33,74.73c3.36-.94,8-1.86,10.07-5.02,1.63-3.74-5.55-1.9-7.23-1.38-3.94,1.29-7.66,3.54-11.12,5.93-1.37,1.06-3.28,2.19-4.3,3.5,2.11-.26,9.23-2.28,12.45-3.01l.13-.03Z"/>
  <path class="st2" d="M248.05,112.46c.63-.1,1.27-.17,1.91-.23,1-.53,2.23-.86,2.33-1.17v-.06c-2.01-1.71-5.45-1.01-7.82-.33-3.73,1.12-7.39,3-9.76,6.19-.01.02-.03.05-.05.07,1.94-.98,3.93-1.85,6-2.56,2.4-.82,4.88-1.53,7.39-1.91Z"/>
  <path class="st2" d="M211.88,111.26c1.66-.34,3.33-.6,5.01-.82.15-.06.3-.13.43-.19.27-.14.73-.27.83-.55v-.06c-4.32-2.72-10.83-.43-14.7,2.27-.65.42-3.18,2.64-3.24,3.47,1.84-.96,3.73-1.8,5.7-2.48,1.96-.67,3.94-1.23,5.97-1.65Z"/>
  <path class="st2" d="M283.9,113.84c.59-.33,1.16-.68,1.69-1.04v-.07c-2.64-2.95-9.08-.9-11.4,2.16,1.47-.37,2.96-.66,4.47-.85,1.74-.21,3.49-.27,5.23-.2Z"/>
  <path class="st2" d="M321.29,111.53c1.87-.18,3.73-.28,5.61-.33,1.88-.05,3.77-.06,5.65-.05.51-.1,1.03-.2,1.52-.29.36-.08.95-.17,1.09-.4v-.04c-6.28-3.71-19.54-.7-26.03,3.01,2.13-.49,4.28-.89,6.45-1.21,1.9-.28,3.8-.51,5.71-.69Z"/>
  <path class="st2" d="M307.32,139.62c4.1,1.91,9.11,2.33,13.32.48.29-.16,1.19-.48,1.35-.82-.85.08-1.7.14-2.55.15-2.5.02-4.98-.26-7.39-.92-2.39-.65-4.63-1.64-6.7-2.99-.33-.22-.65-.47-.96-.73-.53-.18-1.05-.36-1.53-.56-.25-.09-.6-.24-.8-.15l-.04.04c.43,2.54,2.94,4.33,5.3,5.49Z"/>
  <path class="st2" d="M156.7,132.01c-.13-.38-.23-.78-.3-1.18-1.39,1.76-1.08,5.04.12,6.85,2.01,3.46,7.55,5.1,10.73,2.46.23-.42-.48-.55-.9-.69-.86-.09-1.71-.28-2.53-.56-1.6-.55-3.06-1.42-4.31-2.56-1.29-1.17-2.24-2.68-2.81-4.32Z"/>
  <path class="st2" d="M272.39,40.96c1.53,4.34,1.77-.04,1.45-2.75l-.03-.2c-1.39-9.04-12.75-11.14-20.41-11.44-2.26.05,3.7,1.19,4.11,1.52,6.23,2.22,12.28,6.55,14.88,12.87Z"/>
  <path d="M414.19,141.02l-.2-.06c-3.78-1.02-7.69-.28-11.53-.34-6.02.03-11.98-1.16-17.63-3.37-7.87-3.04-15.18-7.49-21.69-12.8-.46-.4-.43-.38-.64-.58-.68-.64-1.39-1.43-1.84-2.21-1.24-2.13-.63-4.09-1.03-6.92-.17-1.31-.52-2.65-.98-3.87-9.28-22.78-38.45-18.6-56.83-10.79-3,1.27-5.58-.98-8.25-2.04-6.3-2.48-13.58-2.94-19.74-.1-2.93,1.17-5.63,4.18-8.99,2.64-8.98-4.38-19.32-6.16-28.78-2.14-4.03,1.93-5.31.69-8.82-1.62-1.75-1.16-6.2-2.23-1.48-3.59,3.41-1.24,9.28-3.36,13.66-4.94,14-4.8,28.21-13.83,38.36-25.07,9.15-11.81,17.34-26.46,7.65-40.44-7.86-11.08-23.46-12.01-35.78-10.69-22.09,3.07-43.06,11.29-65.02,14.58-11.19,1.36-22.48,2.07-33.75.97-2.64-.23-5.3-.54-7.93-.91,3.64,3.72,6.94,7.76,9.84,12.09,10.64.7,21.26.33,31.84-.7,20.8-2.6,40.75-10.39,61.43-14.01,16.8-2.87,39.02-1.12,30.94,22.04-2.35,6.37-6.78,10.76-11.62,14.94-5.37,4.7-11.73,9.51-17.87,12.74-28.7,11.84-59.23,18.64-79.34,44.26-2.88,4.12-5.31,9.32-4.02,14.38.26.88.77,2.11,1.78,2.18.96-.03,1.54-2.17,2.47-3.53,1.33-2.2,3.73-2.93,6.16-3.41,3.56-.73,7.02-2.03,10.15-3.89,3.11-1.79,5.76-4.19,8.28-6.72,7.59-7.97,11.59-15.86,24.31-12.82,9.8,2.65,5.8,5.97.41,10.81-4.01,3.87-7.58,8.2-10.99,12.63-1.1,1.4-4.76,4.62-.61,4.46,19.66-2.37,23.81-28.87,45.83-25.42,13.4,2.37,7.55,4.5-.79,8.42-4.6,2.36-9.03,5.2-12.8,8.73-9.86,9.25-18.81,24.19-34.02,23.71-4,.22-13.21.11-10.57-6.21.76-1.85,3.58-3.87,1.69-4.74-3.36-.53-6.79,1.9-9.82,3.03-5.79,2.47-11.48,4.93-17.59,6.62-12.76,3.63-21.87,1.18-23.41-6.59-2.71,2.93-5.63,5.67-8.73,8.18,2.78,5.38,7.81,9.44,14.89,10.51,9.44,1.65,18.67-.69,27.45-3.78,1.9-.6,3.84-.26,5.7.32,8.48,2.46,17.79,3.33,26.46,2.47,2.4-.24,4.81-1.01,7.24-.98,3.67.19,7.17,1.61,10.87,1.7,6.33.48,12.66-.44,18.54-2.72,1.39-.52,2.89-1.02,4.37-.95,4.95.61,9.77,2.67,14.74,3.27,7.02,1.04,13.88.43,20.67-1.68,1.57-.48,3.21-1.03,4.85-.94,2.51.12,4.84,1.42,7.22,2.16,13.12,4.19,27.38,2.02,40.35-1.96,5.47-1.53,11.25-2.47,16.87-1.25,2.15.42,4.26,1.04,6.36,1.63,14.86,4.21,31.7,4.71,45.85-2.11,5.06-2.74,13.71-9.99,5.87-12.6ZM380.74,147.77l-.12.02c-7.11-.17-13.79-2.55-20.53-4.14-1.47-.56-4.55-.29-4.79-2.21.13-1.88,1.49-4.44,3.2-5.31,1.14-.36,2.11.49,3.11,1.05,1.48.92,3.04,1.94,4.52,2.86,4.27,2.8,9.16,4.89,13.89,6.91.4.18,1.46.65.72.82ZM231.71,145.29c2.77-3.28,6.01-6,8.87-9.3,3.98-4.39,8.65-8.27,13.87-11.14,3.64-2.21,7.84-3.48,11.27-6.04,3.88-2.66,5.75-7.37,9.48-10.1,4.13-3.3,10.61-2.26,14.03,1.61,1.8,1.85,1.23,4.59.03,6.61-1.91,3.29-4.54,6.53-5.56,10.12-.58,2.01-.71,4.37.19,6.37.17.32.44.7.78.53.77-.65.92-2.11,1.47-2.98,2.51-4.08,8.17-5.78,11.45-9.3,3.4-2.73,4.18-7.66,7.15-10.53,9.73-5.6,24.15-8.34,34.83-4.41,2.07.81,4.01,1.96,5.59,3.64.51.57.81,1.17.76,1.66-.11.88-1.09,1.25-1.87,1.5-2.59.74-5.42,1.14-7.77,2.55-.82.44-1.66,1.47-.58,2.12,1,.6,1.65.77,2.73,1.16,12.94,4.29,12.19,13.84,2.6,21.85l-.17.14c-14.7,12.49-37.28,9.69-52.85.25-.81-.38-1.51-.62-2.04.05-.56.77-.73,2.49-1.64,3.45-.5.58-1.15.96-1.86,1.24-5.13,1.67-10.68,1.87-16.22,1.15-1.15-.19-2.36-.45-3.3-1.14-3.27-3,2.15-7.57,4.4-9.52,1.09-.88,1.75-2.13-.31-2.22-2.4-.1-4.88.62-7,1.58-6.88,2.92-12.72,8.18-19.94,10.36-2.15.6-11.22,3.23-8.4-1.27Z"/>
  <path d="M187.36,83.74c18.78-9.7,39.06-15.74,57.17-26.36,2.54-1.65,4.79-3.39,6.95-5.57,1.49-1.44,3.13-2.97,5.27-3.23,1.68-.28,3.89.5,4.43-.28.41-.65-.02-1.53-.33-2.18-1.79-3.28-5.1-4.94-8.6-5.68-15.78-2.6-31.2,3.38-46.35,7.48-15.46,4.51-32.53,7.91-44.2,8.26,1.31,3.54,2.37,7.18,3.18,10.89,18.31-1.1,41-7.47,59.24-12.48.73-.18,2.96-.65,1,.28-13.27,6.07-29.2,11.71-42.57,18.72-5.67,3.26-10.97,7.53-15.95,12.24-.02.79-.03,1.58-.08,2.37-.17,4.75-.8,9.44-1.85,14.02,6.76-7.34,14.63-14.13,22.68-18.48Z"/>
  <path d="M306.35,89.38l.15-.06c7.02-3.07,15.36-4.5,22.71-5.83,7.22-1.1,12.55-2.32,16.31-9.36,4.72-7.88-1.13-16.89-10-17.07-3.68.1-7.29,1.53-10.69,2.76-6.39,2.51-12.09,6.22-17.46,10.89-4.28,3.59-14.64,15.1-12.02,20.88,2.29,2.85,8.3-1.42,11.01-2.21ZM318.05,74.27c3.46-2.39,7.18-4.64,11.12-5.93,1.68-.52,8.87-2.36,7.23,1.38-2.07,3.15-6.7,4.08-10.07,5.02l-.13.03c-3.22.72-10.35,2.75-12.45,3.01,1.02-1.31,2.93-2.44,4.3-3.5Z"/>
  <path d="M305.26,129.81c2.1,1.36,3.75,3.58,6.4,3.99,6.21,1.3,13.38.3,19.09-2.65l.17-.09c.93-.5,2.7-1.86,2.31-2.16-.1-.1-.39-.12-.79-.06-1.57.27-3.4.85-5.07.85-1.81.19-10.94-1.18-10.63-3.49.09-.41.49-.86.84-1.19,2.89-2.61,6.48-4.19,10.23-5.62.93-.35,1.67-.9.25-1.3-9-2.47-21.8,1.4-25.76,10.13-.93,2.61,1.24.81,2.97,1.59Z"/>
  <path class="st2" d="M79.67,68.99c5.5,5.09,14.27,1.79,15.62-5.38,1.36-7.27-6.35-13.56-13.15-10.36-6.27,2.89-7.74,11.06-2.5,15.7l.04.04Z"/>
  <path class="st2" d="M68.73,79.3c.08.43.16.87.24,1.3-.08-.43-.16-.86-.24-1.3Z"/>
  <path class="st2" d="M67.67,75.55c.27.58.47,1.19.64,1.82-.17-.63-.37-1.24-.64-1.82Z"/>
  <path class="st2" d="M67.67,75.55c-.35-.77-.81-1.49-1.44-2.12-.81-.84-1.77-1.4-2.78-1.69,1.01.29,1.97.85,2.78,1.7.63.63,1.09,1.34,1.44,2.12Z"/>
  <path class="st2" d="M136.59,131.31h.02c27.63-29.97,23.37-77.86-8.88-102.68-11.71-9.28-26.51-14.39-41.47-14.64C39.72,12.65,4.23,58.77,17.63,103.64c8,28.44,35.08,49.82,64.7,50.55,20.42.79,40.56-7.7,54.26-22.84v-.04ZM77.04,39.43c5.11-1.18,10.53-1.32,15.72-.41,21.13,3.28,36.06,24.55,32.33,45.59-2.5,16.98-17.2,31.31-34.39,32.98h-.06c-16.37,2.2-33.21-6.9-40.29-21.83-11.32-22.72,1.83-50.8,26.69-56.34ZM95.67,145.69c-32.01,5.84-62.99-15.01-71.02-46.36-.79-2.97-1.36-6.09-1.71-9.18-.14-1.24-.29-2.5-.26-3.73-.02-.73.06-1.71.37-2.16.16-.18.37-.08.49.08.45.47,1.02,2.16,1.45,3.81,1.77,6.72,4.54,12.97,8.21,18.63,27.83,42.63,89.58,36.16,108.97-10.59,1.12-2.75,2.06-5.6,2.81-8.51.39-1.12.61-2.63,1.36-3.48h.02c.88-.47.73,3.03.67,4.07-2.14,28.46-23.72,52.71-51.35,57.42Z"/>
  <path class="st3" d="M55.74,85.12c4.8,20.2,27.87,30.78,45.87,19.91,8.35-4.85,13.93-13.66,15.13-23.21.37-2.87.22-6.01-1.75-8.18l-.04-.04c-2.24-2.54-6.25-2.91-8.78-.67-2.73,2.2-2.83,6.05-3.58,9.24-2.14,10.22-14.21,16.17-23.68,11.65-4.46-2.04-8.06-5.97-9.39-10.71-.23-.8-.4-1.65-.56-2.51-.08-.43-.16-.86-.24-1.3-.12-.65-.26-1.3-.42-1.93s-.37-1.24-.64-1.82c-.35-.77-.81-1.49-1.44-2.12-.81-.84-1.77-1.4-2.78-1.7-3.02-.88-6.48.63-7.76,3.89-.59,1.45-.75,3.05-.68,4.68s.38,3.28.74,4.8Z"/>
  <path class="st1" d="M144.61,139.74c9.75-10.52,16.86-23.49,20.06-37.51,1.05-4.58,1.68-9.27,1.85-14.02.05-.79.06-1.58.08-2.37.19-6.39-.41-12.68-1.73-18.76-.8-3.71-1.86-7.35-3.18-10.89-2.27-6.14-5.28-11.97-8.91-17.38-2.9-4.32-6.2-8.37-9.84-12.09-13.54-13.81-31.83-23-52.08-24.28h-.04C48.01-.86,9.06,31.04,3.91,73.55c-5.99,43.63,25.29,85.31,68.92,91.52,8.02,1.12,16.17,1.14,24.19-.02,14.41-1.93,27.78-8.11,38.87-17.13,3.1-2.52,6.01-5.26,8.73-8.18ZM82.33,154.2c-29.62-.73-56.7-22.11-64.7-50.55C4.23,58.77,39.72,12.65,86.26,14c14.96.24,29.77,5.35,41.47,14.64,32.25,24.82,36.51,72.71,8.88,102.68h-.02v.04c-13.7,15.15-33.84,23.64-54.26,22.84Z"/>
  <path class="st1" d="M90.64,117.59h.06c17.18-1.67,31.88-16,34.39-32.98,3.73-21.03-11.2-42.31-32.33-45.59-5.19-.92-10.61-.77-15.72.41-24.86,5.54-38.01,33.61-26.69,56.34,7.09,14.92,23.92,24.02,40.29,21.83ZM82.13,53.25c6.8-3.2,14.52,3.09,13.15,10.36-1.34,7.17-10.12,10.47-15.62,5.38l-.04-.04c-5.23-4.64-3.77-12.81,2.5-15.7ZM55.68,75.63c1.28-3.27,4.74-4.77,7.76-3.89,1.01.29,1.97.85,2.78,1.69.63.63,1.09,1.34,1.44,2.12.27.58.47,1.19.64,1.82s.3,1.28.42,1.93c.08.43.16.87.24,1.3.16.86.32,1.71.56,2.51,1.32,4.74,4.93,8.67,9.39,10.71,9.47,4.52,21.54-1.43,23.68-11.65.75-3.2.86-7.04,3.58-9.24,2.52-2.24,6.54-1.87,8.78.67l.04.04c1.97,2.18,2.12,5.31,1.75,8.18-1.2,9.55-6.78,18.36-15.13,23.21-18,10.87-41.07.29-45.87-19.91-.36-1.53-.67-3.18-.74-4.8s.09-3.24.68-4.68Z"/>
  <path class="st1" d="M146.35,84.2h-.02c-.75.86-.98,2.36-1.36,3.48-.75,2.91-1.69,5.76-2.81,8.51-19.38,46.75-81.13,53.22-108.97,10.59-3.66-5.66-6.43-11.91-8.21-18.63-.43-1.65-1-3.34-1.45-3.81-.12-.16-.33-.26-.49-.08-.31.45-.39,1.43-.37,2.16-.02,1.22.12,2.48.26,3.73.35,3.09.92,6.21,1.71,9.18,8.02,31.35,39.01,52.2,71.02,46.36,27.63-4.7,49.21-28.95,51.35-57.42.06-1.04.2-4.54-.67-4.07Z"/>
</svg>