<?xml version="1.0" encoding="UTF-8"?>
<svg id="Capa_1" xmlns="http://www.w3.org/2000/svg" version="1.1" viewBox="0 0 90 90">
  <!-- Generator: Adobe Illustrator 30.4.0, SVG Export Plug-In . SVG Version: 2.1.4 Build 226)  -->
  <path d="M89.1,64.28c0,12.88-10.9,23.92-23.75,24.2H25.72c-12.91,0-23.77-11.34-23.8-24.1l-.1-37.65C1.78,13.5,12.25,1.75,25.75,1.45l39.3-.02c13.05,0,24.06,11.33,24.06,24.29v38.56h-.01ZM81.35,63.14l-.05-36.93c-.01-9.27-7.82-17.02-17.08-17.03l-37.06-.03c-9.62,0-17.48,7.79-17.49,17.42l-.02,36.61c0,9.91,7.96,17.65,17.79,17.65h36.19c9.77-.01,17.74-7.71,17.72-17.69Z"/>
  <path d="M42.15,22.79c12.58-1.88,23.88,6.85,25.58,19.09,1.7,12.17-6.72,23.48-18.92,25.31-12.16,1.82-23.63-6.59-25.51-18.79-1.86-12.07,6.36-23.75,18.84-25.61h0ZM44.08,30.49c-8.27.81-13.99,8.24-13.05,16.2s8.05,13.62,16.03,12.77,13.84-7.99,12.94-16.07c-.86-7.7-7.74-13.7-15.92-12.9Z"/>
  <path d="M67.65,16.57c2.96-.72,5.73,1.25,6.29,3.89.61,2.91-1.03,5.59-3.91,6.28-2.65.63-5.51-1.05-6.17-3.68-.72-2.86.71-5.75,3.79-6.49Z"/>
</svg>