<?xml version="1.0" encoding="UTF-8"?>
<svg id="Capa_1" xmlns="http://www.w3.org/2000/svg" version="1.1" viewBox="0 0 90 90">
  <!-- Generator: Adobe Illustrator 30.4.0, SVG Export Plug-In . SVG Version: 2.1.4 Build 226)  -->
  <defs>
    <style>
      .st0 {
        fill: #fefeff;
      }
    </style>
  </defs>
  <g id="vYI1ie">
    <path class="st0" d="M79.83,88.71H11.96c-5.89-.66-10.05-5.24-10.04-11.15l.11-66.19c.01-6.09,5.65-10.16,11.34-10.16l65.24.03c5.62.17,10.13,4.27,10.71,9.87l-.04,67.2c0,5.41-4.17,9.37-9.44,10.4ZM29.73,26.59c1.33-2.26,1.34-4.69.1-6.95-.96-1.76-3-3.19-5.29-3.4-3.55-.32-6.58,1.91-7.41,5.21s.86,6.65,3.88,7.98c3.19,1.41,6.88.26,8.71-2.84ZM62.39,56.76l-.13,17.02h11.97s0-15.58,0-15.58c.21-5.36.48-12.05-1.51-16.85-1.69-4.08-5.36-6.39-9.67-6.83-2.76-.28-5.5-.29-8.08.79s-4.76,2.8-6.32,5.37l-.05-5.42h-11.4s-.3,38.54-.3,38.54l12.01-.03v-18.28s.39-4.51.39-4.51c.16-1.8,1-3.61,2.37-4.78s3.15-1.35,4.85-1.36c5.94-.05,6.15,6.46,5.85,11.92ZM29.61,43.76c-.15-1.42.05-2.45.05-3.68l.02-4.78-11.94-.03-.25,38.52,11.96-.02.15-30.01Z"/>
  </g>
</svg>